<?xml version="1.0" standalone="no"?>
<!DOCTYPE svg PUBLIC "-//W3C//DTD SVG 20010904//EN"
 "http://www.w3.org/TR/2001/REC-SVG-20010904/DTD/svg10.dtd">
<svg version="1.0" xmlns="http://www.w3.org/2000/svg"
 width="140.000000pt" height="140.000000pt" viewBox="0 0 140.000000 140.000000"
 preserveAspectRatio="xMidYMid meet">
<metadata>
Created by potrace 1.14, written by Peter Selinger 2001-2017
</metadata>
<g transform="translate(0.000000,140.000000) scale(0.100000,-0.100000)"
fill="#000000" stroke="none">
<path d="M609 1323 c-6 -16 -41 -116 -79 -223 -152 -431 -359 -1016 -365
-1033 -4 -10 -4 -17 1 -16 5 1 16 1 23 0 12 -1 12 -4 3 -13 -7 -7 -12 -19 -12
-28 1 -9 7 -3 16 13 15 28 16 29 79 30 34 0 40 -3 37 -19 -2 -17 -1 -17 10 2
7 12 18 19 24 17 18 -6 29 16 73 154 34 102 48 132 63 136 17 5 19 2 15 -19
-2 -13 0 -27 4 -30 5 -3 9 8 9 24 l0 28 189 0 c105 0 188 -3 186 -6 -2 -3 6
-7 17 -7 12 -1 24 -6 28 -10 6 -8 51 -117 64 -157 4 -10 9 -16 12 -13 5 5 -25
88 -47 129 -11 22 -12 38 0 38 11 0 63 -158 56 -170 -8 -13 14 -87 37 -125 22
-37 23 -29 3 18 -8 20 -15 44 -14 54 1 12 3 9 8 -7 7 -24 10 -25 103 -27 54
-2 99 1 102 6 3 5 -46 147 -109 316 -63 169 -115 318 -115 332 0 13 -4 22 -8
19 -5 -3 -7 9 -5 27 2 23 1 27 -5 14 -6 -14 -23 22 -66 138 -32 87 -60 172
-63 191 -3 18 -9 31 -14 28 -5 -3 -9 0 -9 5 0 6 4 11 8 11 5 0 7 14 4 30 -2
17 -8 30 -12 30 -4 0 -6 -12 -3 -27 2 -16 -12 10 -31 57 -19 47 -35 91 -35 98
-1 8 -25 12 -86 12 -84 0 -86 0 -96 -27z m98 -255 c-2 -7 -7 -24 -11 -38 l-7
-25 14 24 c22 38 28 1 6 -39 l-18 -35 -2 30 c-4 54 4 95 17 95 3 0 4 -6 1 -12z
m108 -302 c77 -224 84 -251 63 -244 -13 5 -30 44 -118 268 -55 138 -60 157
-49 183 7 15 16 24 20 20 4 -4 42 -107 84 -227z m-142 153 c-19 -32 -31 -32
-13 1 6 12 9 29 6 37 -5 13 -4 14 9 3 13 -11 13 -15 -2 -41z m47 -54 c24 -57
130 -330 130 -337 0 -3 -51 -6 -114 -7 -93 -1 -123 3 -159 18 l-45 19 34 104
c18 57 43 120 54 140 12 21 18 43 14 50 -5 7 -3 8 6 3 10 -6 12 -4 6 11 -4 10
-4 15 0 11 4 -4 16 8 27 26 14 23 21 28 25 17 2 -8 12 -33 22 -55z m-140 -338
c8 -3 -2 -6 -22 -6 -29 -1 -36 2 -32 14 4 10 11 12 22 6 10 -4 24 -11 32 -14z
m347 -183 c-3 -3 -12 -4 -19 -1 -8 3 -5 6 6 6 11 1 17 -2 13 -5z m33 -4 c0 -5
-4 -10 -10 -10 -5 0 -10 5 -10 10 0 6 5 10 10 10 6 0 10 -4 10 -10z"/>
<path d="M846 1260 c8 -43 14 -51 14 -19 0 13 -5 31 -10 39 -7 11 -8 5 -4 -20z"/>
</g>
</svg>
